<?xml version="1.0" encoding="UTF-8" standalone="no"?>
<!DOCTYPE svg PUBLIC "-//W3C//DTD SVG 1.1//EN" "http://www.w3.org/Graphics/SVG/1.1/DTD/svg11.dtd">
<svg viewBox="0 0 1024 1024" height="100%" version="1.1" xmlns="http://www.w3.org/2000/svg" xmlnsXlink="http://www.w3.org/1999/xlink" xmlSpace="preserve">
	<path id="head1" d="M383.912,212.796C408.823,212.561 429.851,217.178 454.843,219.788C459.06,220.228 472.605,220.135 478.522,219.014C479.828,218.766 481.518,218.699 482.244,217.586C483.355,215.883 483.144,213.611 483.364,211.589C484.083,204.968 484.905,198.339 485.059,191.68C485.316,180.563 486.056,149.094 483.399,132.46C482.623,127.602 481.001,122.911 480.118,118.071C477.675,104.676 475.444,89.078 475.767,75.402C475.936,68.24 476.844,61.101 477.918,54.018C478.454,50.487 483.721,40.715 478.711,37.174C475.928,35.207 472.709,33.822 469.436,32.874C466.168,31.926 462.714,31.411 459.314,31.553C450.6,31.916 441.891,32.864 433.302,34.381C424.221,35.984 415.286,38.377 406.414,40.891C390.439,45.418 374.69,50.706 358.792,55.497C349.161,58.4 339.568,61.448 329.831,63.972C325.731,65.035 320.07,63.923 316.595,67.398C317.81,70.124 319.037,72.876 319.783,75.766C320.549,78.73 320.25,81.914 321.102,84.854C328.867,111.641 331.228,110.769 336.748,137.972C340.981,158.836 341.852,180.261 345.482,201.238C346.251,205.684 348.611,209.764 349.305,214.222C349.733,216.971 346.232,221.485 348.801,222.554C352.208,223.973 355.553,219.559 359.008,218.262C369.016,214.505 373.107,212.898 383.912,212.796Z" style="fill:none;stroke:rgb(126,127,122);stroke-width:8px;"/>
	<path id="body1" d="M424.422,215.024C427.156,217.727 424.612,223.759 424.441,226.483C424.027,233.067 423.449,240.522 428.516,245.636C440.687,257.921 451.704,259.116 466.926,267.816C472.125,270.787 480.745,280.301 484.707,284.586C489.067,289.3 498.087,297.095 498.087,304.819C498.984,315.605 499.882,326.395 500.396,337.206C502.123,373.507 501.444,373.364 503.533,409.735C504.534,427.161 504.087,444.133 505.048,461.671C507.403,504.64 508.396,504.379 512.406,547.399C513.679,561.058 515.211,574.704 515.904,588.405C516.126,592.795 515.292,597.177 515.147,601.57C515.08,603.591 516.598,606.109 515.271,607.635C515.535,609.049 515.803,610.485 515.763,611.923C515.722,613.385 515.469,614.854 515.033,616.25C513.651,620.679 507.764,625.727 503.148,621.884C501.304,620.349 500.646,616.517 500.419,614.46C499.562,606.694 500.691,599.576 500.612,591.832C500.504,581.231 500.241,570.61 499.205,560.059C494.092,508.009 491.025,482.794 484.347,439.671C480.937,417.653 475.685,395.741 472.696,373.706C471.332,363.65 474.189,348.199 467.972,338.794C467.13,337.52 464.479,339.921 464.221,341.427C463.481,345.753 463.398,350.17 463.212,354.555C462.472,372.005 461.958,389.465 461.444,406.923C461.444,445.834 468.75,484.157 471.219,522.91C471.807,532.136 471.426,541.4 471.326,550.645C471.293,553.691 470.975,556.727 470.821,559.769C470.759,560.995 470.896,564.656 470.677,563.448C471.846,601.898 473.015,640.35 474.537,678.788C475.514,703.455 476.61,703.232 478.436,727.938C478.901,734.232 476.201,741.262 475.756,747.472C475.019,757.778 476.875,757.698 475.862,767.869C475.335,773.16 473.293,778.25 472.976,783.558C471.353,810.759 474.29,837.563 473.192,864.634C471.059,917.211 472.287,917.078 475.248,969.696C475.784,979.213 477.462,988.59 465.912,992.045C454.759,995.381 446.849,982.94 446.935,973.462C447.047,961.2 449.192,947.873 451.013,935.693C451.419,932.975 453.125,926.607 453.212,924.575C454.316,898.922 454.987,870.348 454.656,844.87C454.281,815.978 449.648,787.421 447.518,758.663C445.794,735.375 445.073,713.37 440.01,690.437C438.237,682.407 435.346,674.666 433.037,666.773C430.729,658.881 427.833,651.133 426.161,643.082C423.023,627.973 423.517,611.004 417.282,596.368C414.315,589.404 404.057,588.785 397.958,591.355C380.591,598.672 385.122,629.542 385.367,642.884C385.877,670.618 385.158,697.782 384.397,725.529C383.482,758.896 389.094,793.593 390.313,826.586C390.577,833.731 389.097,840.859 389.231,848.008C389.733,874.705 394.002,894.638 397.022,921.367C397.489,925.501 397.213,929.685 397.237,933.845C397.248,935.817 397.712,941.645 397.129,939.761C396.182,941.221 395.234,942.683 394.362,944.189C392.902,946.71 386.463,958.996 386.249,959.561C383.896,965.768 383.032,981.138 374.491,984.409C370.168,986.064 365.451,986.567 360.837,986.942C359.032,987.09 352.779,987.121 350.698,984.619C348.313,981.751 350.693,977.312 352.675,975.057C358.333,968.617 368.699,961.21 368.396,951.41C368.232,946.111 366.916,940.901 366.556,935.612C364.967,912.245 363.866,888.848 362.553,865.464C361.493,846.595 361.093,827.685 359.668,808.84C358.473,793.036 355.158,778.123 354.223,762.027C352.987,740.75 352.366,708.196 350.651,686.939C348.12,655.565 341.549,624.762 340.517,593.181C339.707,568.428 341.287,568.643 340.084,543.72C339.383,529.209 337.157,514.93 336.442,500.368C335.237,475.839 334.549,451.287 333.341,426.759C332.83,416.388 329.456,405.003 328.832,395.489C327.89,381.135 323.626,364.775 321.583,351.201C320.755,345.702 321.385,332.814 314.944,328.968C312.545,327.536 311.973,331.936 311.664,333.031C310.472,337.248 310.921,343.84 310.836,347.63C310.432,365.688 309.433,383.739 309.501,401.802C309.547,414.021 311.979,424.451 312.775,436.138C313.365,444.792 311.931,453.468 311.701,462.139C310.722,499.07 310.374,536.755 312.494,573.655C313.584,592.626 315.118,610.549 317.543,629.521C317.825,631.73 319.058,636.566 317.362,638.789C316.32,640.156 314.245,636.301 312.602,636.806C310.805,637.358 310.049,639.873 308.238,640.377C302.639,641.934 295.429,640.538 291.106,636.482C288.962,634.47 289.59,628.911 291.575,627.105C296.948,622.216 303.201,623.794 303.694,615.563C305.266,589.331 304.476,578.101 303.694,551.871C303.26,537.322 303.256,522.744 302.143,508.231C301.304,497.286 299.331,486.771 298.608,475.627C297.332,455.954 297.067,436.223 295.757,416.552C293.03,375.607 286.589,334.653 292.041,293.568C295.429,268.033 327.809,258.194 349.026,253.823C353.846,252.83 358.791,252.5 363.705,252.236C365.625,252.133 367.639,253.363 369.453,252.725C379.068,249.342 380.37,232.114 381.45,224.104C381.954,220.364 382.316,209.04 382.316,212.815L424.422,215.024Z" style="fill:none;stroke:rgb(126,127,122);stroke-width:8px;"/>
	<path id="eye1" d="M432.495,124.008C432.274,122.614 431.497,121.4 430.656,120.453C430.96,119.246 430.581,117.855 429.798,116.905C428.785,115.544 427.296,114.132 425.652,113.588C421.549,112.229 415.768,111.595 413.461,116.209C412.487,118.158 412.294,120.817 412.539,122.913C412.737,124.598 413.094,126.272 413.602,127.89C415.093,132.632 418.529,139.441 424.138,140.373C427.852,140.99 431.101,138.156 432.322,134.776C433.518,131.464 433.034,127.409 432.495,124.008Z" style="fill:rgb(126,127,122);"/>
	<path id="eye12" d="M369.871,106.418C367.162,109.332 368.428,114.079 371.647,116.11C373.379,119.311 376.382,121.699 380.067,122.112C384.105,122.565 388.754,120.782 391.895,118.34C392.979,117.843 393.686,117.03 394.083,116.217C395.217,114.819 395.959,113.259 396.185,111.646C396.788,107.33 394.771,104.148 392.025,101.3C390.163,97.487 386.248,95.497 382.185,95.114C377.97,94.716 374.741,96.4 372.632,99.163C371.267,100.321 370.468,101.956 370.358,103.872C370.132,104.693 369.969,105.546 369.871,106.418Z" style="fill:rgb(126,127,122);"/>
	<path id="tit1" d="M434.551,337.327C433.538,338.628 433.362,340.402 433.764,341.978C434.745,347.469 441.378,352.291 446.317,348.189C447.303,347.371 448.073,346.459 448.601,345.29C450.441,341.212 447.293,337.209 443.603,335.66C440.617,333.97 436.462,334.105 434.551,337.327Z" style="fill:rgb(126,127,122);"/>
	<path id="tit12" d="M347.63,334.979C346.914,335.091 346.191,335.346 345.483,335.764C345.024,336.023 344.624,336.336 344.288,336.694C343.153,337.868 342.709,339.6 343.105,341.178C343.874,345.394 348.555,348.854 352.703,346.79C354.682,345.805 355.758,343.804 355.541,341.53C355.618,339.963 355.069,338.366 353.933,337.268C352.652,334.992 350.042,334.413 347.63,334.979Z" style="fill:rgb(126,127,122);"/>
	<path id="head2" d="M608.456,233.421C600.902,233.629 593.38,232.261 585.826,232.073C583.822,232.023 577.654,233.828 575.619,232.182C574.108,230.96 575.476,224.876 575.403,223.706C574.86,215.032 574.095,206.367 573.059,197.738C570.703,178.111 567.181,158.624 565.231,138.952C563.369,120.168 563.39,101.245 562.31,82.4C562.181,80.155 561.407,77.773 562.166,75.656C562.454,74.852 563.88,75.555 564.728,75.656C567.735,76.013 570.723,76.516 573.708,77.026C578.282,77.807 582.799,78.935 587.401,79.528C620.405,83.776 620.477,81.768 653.3,86.809C677.416,90.513 680.348,93.055 702.787,102.056C706.461,103.53 710.11,105.062 713.787,106.528C715.569,107.238 717.85,107.184 719.162,108.584C719.873,109.343 718.98,110.687 718.585,111.649C717.43,114.464 715.697,117.02 714.544,119.836C710.115,130.65 706.1,141.628 701.85,152.513C695.866,167.84 681.235,204.423 676.026,220.063C674.123,225.776 673.875,233.107 673.754,239.034C673.712,241.114 675.218,243.666 673.898,245.273C672.956,246.42 670.974,244.661 669.605,244.084C664.038,241.739 664.548,240.8 658.685,239.582C646.509,237.052 633.177,235.995 620.843,234.518C616.727,234.025 612.59,233.723 608.456,233.421Z" style="fill:none;stroke:rgb(126,127,122);stroke-width:8px;"/>
	<path id="body2" d="M636.959,236.834C635.549,242.474 634.891,248.332 634.839,254.146C634.798,258.698 635.611,263.252 636.681,267.677C639.264,278.368 648.738,281.535 657.849,284.586C670.986,288.985 681.274,292.175 693.627,298.58C696.708,300.177 699.969,301.803 702.246,304.422C705.06,307.659 706.811,311.727 708.487,315.675C718.477,339.207 721.682,349.711 725.725,374.967C728.407,391.724 727.797,409.632 729.693,426.433C730.228,431.177 732.026,435.739 732.398,440.499C733.47,454.232 731.686,469.482 731.786,483.2C731.907,499.783 732.695,516.354 732.976,532.935C733.342,554.49 732.535,554.269 731.065,575.927C730.739,580.728 730.624,585.542 730.56,590.353C730.529,592.677 730.655,595.002 730.78,597.323C731.839,598.683 734.856,602.407 734.204,604.851C732.91,609.702 723.081,619.488 718.01,613.44C716.382,611.499 715.531,606.525 715.557,604.635C715.614,600.455 715.864,596.227 716.818,592.156C716.709,594.173 717.649,588.186 717.757,586.169C718.022,581.235 717.844,576.287 717.936,571.346C718.204,556.859 718.754,542.376 718.837,527.886C719.081,485.082 722.682,437.329 708.343,395.668C707.266,396.745 707.868,392.648 707.406,391.197C706.826,389.376 706.109,387.589 705.231,385.892C704.475,384.433 702.492,381.76 701.31,382.902C698.455,385.662 698.625,389.322 698.388,392.856C697.863,400.679 697.733,408.533 696.946,416.335C694.936,436.268 695.442,436.126 693.845,456.152C693.213,464.073 691.224,471.85 690.634,479.774C689.749,491.656 691.034,505.795 692.403,517.572C694.475,535.395 697.172,553.143 699.074,570.985C700.051,580.149 699.227,589.442 700.144,598.612C701.595,613.121 704.807,627.581 706.167,642.108C710.316,686.421 709.768,694.084 710.784,738.547C711.23,758.078 712.553,778.092 712.715,797.649C712.864,815.682 711.185,833.685 710.133,851.687C708.238,884.123 702.791,915.596 706.003,948.211C706.921,957.525 707.272,957.387 711.502,965.222C714.911,971.535 716.777,971.396 715.675,977.983C714.954,982.287 710.537,982.361 707.198,981.804C698.048,980.278 689.457,974.327 684.677,966.384C681.559,961.202 682.868,955.332 683.157,949.527C683.372,945.205 684.658,931.267 685.587,926.583C686.761,920.668 688.967,917.117 689.951,911.152C693.691,888.489 688.305,864.261 687.624,841.653C687.125,825.081 688.618,808.701 685.25,792.286C685.181,791.401 685.113,790.513 685.13,789.626C685.16,788.07 685.36,786.52 685.393,784.964C685.716,769.663 685.136,767.054 686.547,750.395C688.311,729.565 690.602,727.695 688.945,708.621C687.765,695.032 684.557,681.674 683.286,668.093C682.025,654.63 683.3,640.989 681.753,627.555C680.957,620.644 679.104,613.891 677.495,607.123C675.461,598.567 673.44,587.744 665.828,582.083C661.26,578.686 659.281,579.187 654.105,577.554C650.701,576.48 650.017,574.935 645.732,575.874C635.946,578.018 637.648,587.913 638.328,595.005C639.114,603.197 640.199,611.377 640.456,619.603C640.954,635.546 638.66,635.27 639.301,651.015C640.191,672.881 642.409,690.358 642.599,711.362C642.793,732.861 642.908,754.371 642.262,775.862C642.109,780.971 641.081,786.038 641.069,791.149C641.038,804.915 647.127,819.902 644.85,833.356C644.411,835.95 643.048,835.228 642.719,837.662C641.507,846.608 643.241,855.859 642.294,864.922C640.355,883.47 636.196,901.324 635.185,920.028C634.246,937.413 637.98,955.92 634.316,973.045C633.612,976.335 631.392,980.992 628.049,982.569C624.92,984.045 617.207,985.109 615.317,980.476C614.457,978.367 615.692,975.684 616.002,973.696C616.7,969.224 617.978,964.767 617.842,960.243C617.434,946.663 615.711,933.153 614.379,919.633C613.109,902.24 613.333,884.77 612.828,867.338C612.66,861.52 612.446,855.702 612.36,849.882C612.326,847.55 612.468,840.554 612.468,842.886C612.468,832.204 613.068,821.511 612.596,810.84C611.428,784.406 609.286,784.81 605.741,758.567C604.031,745.905 603.564,723.634 602.854,711.676C602.335,702.942 601.429,694.232 600.963,685.495C600.784,682.15 601.043,678.793 600.92,675.446C600.85,673.547 602.287,669.769 600.386,669.769C600.386,671.013 599.569,667.405 599.379,666.175C599.078,664.228 598.92,662.253 598.92,660.283L598.92,648.815C598.92,627.56 596.847,609.445 595.925,589.127C595.461,578.903 596.327,568.648 595.867,558.425C595.18,543.143 591.29,527.981 591.669,512.666C592.135,493.826 597.451,473.251 593.653,454.457C592.399,448.251 590.093,442.3 588.025,436.315C587.653,434.293 587.281,432.271 586.871,430.256C585.719,424.6 584.651,418.925 583.338,413.305C580.349,400.515 576.704,389.502 574.536,376.518C573.869,372.527 575.669,364.399 570.822,361.622C566.443,359.113 564.419,366.383 564.078,368.727C562.539,379.294 564.91,390.199 563.284,400.754C563.313,397.939 563.284,400.754 563.284,400.754C562.723,409.053 562.129,426.026 563.575,434.62C565.019,443.2 568.205,451.426 569.633,460.009C572.256,475.776 571.361,489.148 571.798,505.021C572.698,537.724 572.799,537.538 572.699,570.155C572.685,574.844 572.067,579.558 572.555,584.221C573.437,592.654 577.187,592.113 575.801,600.451C573.157,616.361 560.163,608.622 554.558,599.924C554.558,599.924 555.728,605.351 553.923,561.855C548.613,533.669 550.036,504.117 547.318,475.655C544.799,449.282 534.749,424.174 534.749,397.578C534.65,396.498 534.551,395.416 534.51,394.332C534.361,390.367 534.233,386.4 534.179,382.432C534.014,370.218 533.926,358.004 533.854,345.789C533.779,333.023 534.142,333.171 535.297,320.542C535.963,313.258 534.566,307.45 536.451,300.237C536.895,298.539 538.268,297.234 539.228,295.765C543.361,289.437 544.553,286.002 551.995,282.925C557.284,280.738 561.862,282.68 567.25,281.916C574.934,280.827 580.74,278.609 587.196,274.306C598.532,266.751 603.489,263.925 606.202,251.836C607.067,247.98 607.766,244.087 608.402,240.187C608.764,237.965 606.959,233.741 609.195,233.479C618.454,232.392 627.895,234.658 636.959,236.834Z" style="fill:none;stroke:rgb(126,127,122);stroke-width:8px;"/>
	<path id="eye21" d="M662.921,113.102C662.259,113.278 661.499,113.627 660.688,114.28C658.565,115.296 656.571,116.429 656.84,119.097C655.443,122.437 655.384,126.298 655.869,129.831C652.974,137.742 659.382,145.629 667.658,143.224C669.872,142.581 672.357,140.555 674.178,138.633C674.562,138.29 674.919,137.888 675.243,137.431C675.308,137.353 675.372,137.274 675.436,137.194C681.857,129.164 678.951,113.657 668.405,110.619C666.223,109.99 663.87,110.938 662.921,113.102Z" style="fill:rgb(126,127,122);"/>
	<path id="eye22" d="M615.999,118.957C613.833,118.934 611.622,119.4 610.26,121.236C608.05,121.484 606.428,123.586 606.752,125.782C605.423,129.748 607.026,135.287 610.822,137.45C611.401,137.779 612.022,138.032 612.674,138.21C613.725,140.184 616.362,140.625 618.23,139.587C618.726,139.415 619.168,139.054 619.514,138.456C619.738,138.42 619.964,138.358 620.191,138.276C620.976,138.56 621.76,138.594 622.424,138.245C623.712,138.135 624.777,137.02 624.985,134.181C625.574,133.598 626.12,132.957 626.547,132.247C628.179,129.531 628.148,127.062 627.121,124.97C626.761,122.861 625.486,121.148 623.255,120.913C623.038,120.782 622.817,120.657 622.592,120.538C621.954,118.214 620.43,117.819 618.907,118.365C617.834,117.981 616.762,118.063 615.999,118.957Z" style="fill:rgb(126,127,122);"/>
	<path id="tit21" d="M667.245,355.182C665.405,357.563 665.706,360.701 667.051,363.241C667.498,364.084 668.013,364.784 668.576,365.358C669.846,369.848 674.68,371.643 678.511,368.953C681.463,366.88 683.337,363.127 682.996,359.5C683.047,357.753 682.395,355.957 680.818,354.328C678.916,352.362 677.081,351.754 675.544,351.747C674.798,351.484 674.037,351.395 673.318,351.457C672.479,351.245 671.518,351.157 670.657,351.327C669.29,351.597 667.473,352.717 667.245,355.182Z" style="fill:rgb(126,127,122);"/>
	<path id="tit22" d="M595.419,359.49C595.404,359.627 595.397,359.767 595.397,359.908C595.397,366.526 605.096,370.758 609.113,364.848C609.607,364.121 609.987,363.302 610.215,362.453C612.105,355.394 602.544,346.117 596.338,352.234C594.359,354.185 594.285,357.064 595.419,359.49Z" style="fill:rgb(126,127,122);"/>
</svg>
